<svg xmlns="http://www.w3.org/2000/svg" xmlns:svg="http://www.w3.org/2000/svg" id="svg2" width="1127.4" height="390.444" version="1.1" viewBox="0 0 1127.4 390.444" xml:space="preserve"><metadata id="metadata8"/><defs id="defs6"><clipPath id="clipPath16" clipPathUnits="userSpaceOnUse"><path style="clip-rule:evenodd" id="path18" d="m 0,1.2207e-4 960,0 0,539.99999793 -960,0 L 0,1.2207e-4 Z"/></clipPath><clipPath id="clipPath46" clipPathUnits="userSpaceOnUse"><path style="clip-rule:evenodd" id="path48" d="M 1.4305e-5,0 960.00001,0 l 0,540 -959.999995695,0 0,-540 z"/></clipPath><clipPath id="clipPath58" clipPathUnits="userSpaceOnUse"><path style="clip-rule:evenodd" id="path60" d="M 1.4305e-5,0 960.00001,0 l 0,540 -959.999995695,0 0,-540 z"/></clipPath><clipPath id="clipPath70" clipPathUnits="userSpaceOnUse"><path style="clip-rule:evenodd" id="path72" d="M 1.4305e-5,0 960.00001,0 l 0,540 -959.999995695,0 0,-540 z"/></clipPath><clipPath id="clipPath82" clipPathUnits="userSpaceOnUse"><path style="clip-rule:evenodd" id="path84" d="M 1.4305e-5,0 960.00001,0 l 0,540 -959.999995695,0 0,-540 z"/></clipPath><clipPath id="clipPath94" clipPathUnits="userSpaceOnUse"><path style="clip-rule:evenodd" id="path96" d="M 1.4305e-5,0 960.00001,0 l 0,540 -959.999995695,0 0,-540 z"/></clipPath><clipPath id="clipPath106" clipPathUnits="userSpaceOnUse"><path style="clip-rule:evenodd" id="path108" d="M 1.4305e-5,0 960.00001,0 l 0,540 -959.999995695,0 0,-540 z"/></clipPath><clipPath id="clipPath118" clipPathUnits="userSpaceOnUse"><path style="clip-rule:evenodd" id="path120" d="M 1.4305e-5,0 960.00001,0 l 0,540 -959.999995695,0 0,-540 z"/></clipPath><clipPath id="clipPath130" clipPathUnits="userSpaceOnUse"><path style="clip-rule:evenodd" id="path132" d="M 1.4305e-5,0 960.00001,0 l 0,540 -959.999995695,0 0,-540 z"/></clipPath><clipPath id="clipPath146" clipPathUnits="userSpaceOnUse"><path style="clip-rule:evenodd" id="path148" d="M 1.4305e-5,0 960.00001,0 l 0,540 -959.999995695,0 0,-540 z"/></clipPath><clipPath id="clipPath158" clipPathUnits="userSpaceOnUse"><path style="clip-rule:evenodd" id="path160" d="M 1.4305e-5,0 960.00001,0 l 0,540 -959.999995695,0 0,-540 z"/></clipPath><clipPath id="clipPath170" clipPathUnits="userSpaceOnUse"><path style="clip-rule:evenodd" id="path172" d="M 1.4305e-5,0 960.00001,0 l 0,540 -959.999995695,0 0,-540 z"/></clipPath><clipPath id="clipPath182" clipPathUnits="userSpaceOnUse"><path style="clip-rule:evenodd" id="path184" d="M 1.4305e-5,0 960.00001,0 l 0,540 -959.999995695,0 0,-540 z"/></clipPath><clipPath id="clipPath198" clipPathUnits="userSpaceOnUse"><path style="clip-rule:evenodd" id="path200" d="M 1.4305e-5,0 960.00001,0 l 0,540 -959.999995695,0 0,-540 z"/></clipPath><clipPath id="clipPath214" clipPathUnits="userSpaceOnUse"><path style="clip-rule:evenodd" id="path216" d="M 1.4305e-5,0 960.00001,0 l 0,540 -959.999995695,0 0,-540 z"/></clipPath><clipPath id="clipPath226" clipPathUnits="userSpaceOnUse"><path style="clip-rule:evenodd" id="path228" d="M 1.4305e-5,0 960.00001,0 l 0,540 -959.999995695,0 0,-540 z"/></clipPath><clipPath id="clipPath242" clipPathUnits="userSpaceOnUse"><path style="clip-rule:evenodd" id="path244" d="M 1.4305e-5,0 960.00001,0 l 0,540 -959.999995695,0 0,-540 z"/></clipPath><clipPath id="clipPath254" clipPathUnits="userSpaceOnUse"><path style="clip-rule:evenodd" id="path256" d="M 1.4305e-5,0 960.00001,0 l 0,540 -959.999995695,0 0,-540 z"/></clipPath><clipPath id="clipPath266" clipPathUnits="userSpaceOnUse"><path style="clip-rule:evenodd" id="path268" d="M 1.4305e-5,0 960.00001,0 l 0,540 -959.999995695,0 0,-540 z"/></clipPath><clipPath id="clipPath278" clipPathUnits="userSpaceOnUse"><path style="clip-rule:evenodd" id="path280" d="M 1.4305e-5,0 960.00001,0 l 0,540 -959.999995695,0 0,-540 z"/></clipPath><clipPath id="clipPath294" clipPathUnits="userSpaceOnUse"><path style="clip-rule:evenodd" id="path296" d="M 1.4305e-5,0 960.00001,0 l 0,540 -959.999995695,0 0,-540 z"/></clipPath><clipPath id="clipPath310" clipPathUnits="userSpaceOnUse"><path style="clip-rule:evenodd" id="path312" d="M 1.4305e-5,0 960.00001,0 l 0,540 -959.999995695,0 0,-540 z"/></clipPath><clipPath id="clipPath326" clipPathUnits="userSpaceOnUse"><path style="clip-rule:evenodd" id="path328" d="M 1.4305e-5,0 960.00001,0 l 0,540 -959.999995695,0 0,-540 z"/></clipPath><clipPath id="clipPath338" clipPathUnits="userSpaceOnUse"><path style="clip-rule:evenodd" id="path340" d="M 1.4305e-5,0 960.00001,0 l 0,540 -959.999995695,0 0,-540 z"/></clipPath><clipPath id="clipPath354" clipPathUnits="userSpaceOnUse"><path style="clip-rule:evenodd" id="path356" d="M 1.4305e-5,0 960.00001,0 l 0,540 -959.999995695,0 0,-540 z"/></clipPath><clipPath id="clipPath366" clipPathUnits="userSpaceOnUse"><path style="clip-rule:evenodd" id="path368" d="M 1.4305e-5,0 960.00001,0 l 0,540 -959.999995695,0 0,-540 z"/></clipPath><clipPath id="clipPath380" clipPathUnits="userSpaceOnUse"><path style="clip-rule:evenodd" id="path382" d="M 1.4305e-5,0 960.00001,0 l 0,540 -959.999995695,0 0,-540 z"/></clipPath></defs><g id="g12" transform="matrix(1.25,0,0,-1.25,-36.3,526.64357)"><g id="g14" clip-path="url(#clipPath16)"><path style="fill:#fff;fill-opacity:1;fill-rule:evenodd;stroke:none" id="path20" d="m 0,6.1035e-5 960,0 0,539.999998965 -960,0 L 0,6.1035e-5 Z"/></g></g><g id="g3656" transform="translate(-36.3,-148.35643)"><g id="g22" transform="matrix(1.25,0,0,-1.25,0,675)"><path id="path24" d="M 554.88,235.57 655.01,369.36" style="fill:none;stroke:#2f6168;stroke-width:5.03999996;stroke-linecap:butt;stroke-linejoin:miter;stroke-miterlimit:10;stroke-dasharray:5.04,5.04;stroke-dashoffset:0;stroke-opacity:1"/></g><g id="g26" transform="matrix(1.25,0,0,-1.25,0,675)"><path id="path28" d="m 210.51,283.95 -99.63,44.61" style="fill:none;stroke:#2f6168;stroke-width:5.03999996;stroke-linecap:butt;stroke-linejoin:miter;stroke-miterlimit:10;stroke-dasharray:5.04,5.04;stroke-dashoffset:0;stroke-opacity:1"/></g><g id="g30" transform="matrix(1.25,0,0,-1.25,0,675)"><path id="path32" d="m 112.44,171.63 99.63,44.61" style="fill:none;stroke:#2f6168;stroke-width:5.03999996;stroke-linecap:butt;stroke-linejoin:miter;stroke-miterlimit:10;stroke-dasharray:5.04,5.04;stroke-dashoffset:0;stroke-opacity:1"/></g><g id="g34" transform="matrix(1.25,0,0,-1.25,0,675)"><path id="path36" d="m 158.04,247.56 535.12,0" style="fill:none;stroke:#2f6168;stroke-width:5.03999996;stroke-linecap:butt;stroke-linejoin:miter;stroke-miterlimit:10;stroke-dasharray:5.04,5.04;stroke-dashoffset:0;stroke-opacity:1"/></g><path id="path38" d="m 563.55,363.675 c 0,-43.0375 34.925,-77.925 78,-77.925 43.075,0 78,34.8875 78,77.925 0,43.0375 -34.925,77.925 -78,77.925 -43.075,0 -78,-34.8875 -78,-77.925 z" style="fill:#d3ddb8;fill-opacity:1;fill-rule:evenodd;stroke:none"/><path id="path40" d="m 568.2,364.2 c 0,-40.675 33.0125,-73.65 73.725,-73.65 40.7125,0 73.725,32.975 73.725,73.65 0,40.675 -33.0125,73.65 -73.725,73.65 -40.7125,0 -73.725,-32.975 -73.725,-73.65 z" style="fill:#2f6168;fill-opacity:1;fill-rule:evenodd;stroke:none"/><g id="g42" transform="matrix(1.25,0,0,-1.25,0,675)"><g id="g44" clip-path="url(#clipPath46)"><text id="text50" transform="matrix(1,0,0,-1,468,252.67)" style="font-variant:normal;font-weight:300;font-size:18px;font-family:Lato;-inkscape-font-specification:Lato-Light;writing-mode:lr-tb;fill:#fcfff4;fill-opacity:1;fill-rule:nonzero;stroke:#fcfff4;stroke-width:.51428998;stroke-linecap:butt;stroke-linejoin:miter;stroke-miterlimit:10;stroke-dasharray:none;stroke-opacity:1"><tspan id="tspan52" x="0 12.816 27.324 43.686 54.432 59.814 69.03 79.668" y="0">COMPILER</tspan></text></g></g><g id="g54" transform="matrix(1.25,0,0,-1.25,0,675)"><g id="g56" clip-path="url(#clipPath58)"><text id="text62" transform="matrix(1,0,0,-1,479.76,231.07)" style="font-variant:normal;font-weight:300;font-size:18px;font-family:Lato;-inkscape-font-specification:Lato-Light;writing-mode:lr-tb;fill:#fcfff4;fill-opacity:1;fill-rule:nonzero;stroke:#fcfff4;stroke-width:.51428998;stroke-linecap:butt;stroke-linejoin:miter;stroke-miterlimit:10;stroke-dasharray:none;stroke-opacity:1"><tspan id="tspan64" x="0 10.782 24.462 38.034 43.416 57.024" y="0">ENGINE</tspan></text></g></g><g id="g66" transform="matrix(1.25,0,0,-1.25,0,675)"><g id="g68" clip-path="url(#clipPath70)"><text id="text74" transform="matrix(1,0,0,-1,702.62,403.8)" style="font-variant:normal;font-weight:300;font-size:24px;font-family:Lato;-inkscape-font-specification:Lato-Light;writing-mode:lr-tb;fill:#123642;fill-opacity:1;fill-rule:nonzero;stroke:#123642;stroke-width:.68571001;stroke-linecap:butt;stroke-linejoin:miter;stroke-miterlimit:10;stroke-dasharray:none;stroke-opacity:1"><tspan id="tspan76" x="0 15.456 30.696 47.712" y="0">BACK</tspan></text></g></g><g id="g78" transform="matrix(1.25,0,0,-1.25,0,675)"><g id="g80" clip-path="url(#clipPath82)"><text id="text86" transform="matrix(1,0,0,-1,765.65,403.8)" style="font-variant:normal;font-weight:300;font-size:24px;font-family:Lato;-inkscape-font-specification:Lato-Light;writing-mode:lr-tb;fill:#123642;fill-opacity:1;fill-rule:nonzero;stroke:#123642;stroke-width:.68571001;stroke-linecap:butt;stroke-linejoin:miter;stroke-miterlimit:10;stroke-dasharray:none;stroke-opacity:1"><tspan id="tspan88" x="0" y="0">-</tspan></text></g></g><g id="g90" transform="matrix(1.25,0,0,-1.25,0,675)"><g id="g92" clip-path="url(#clipPath94)"><text id="text98" transform="matrix(1,0,0,-1,773.57,403.8)" style="font-variant:normal;font-weight:300;font-size:24px;font-family:Lato;-inkscape-font-specification:Lato-Light;writing-mode:lr-tb;fill:#123642;fill-opacity:1;fill-rule:nonzero;stroke:#123642;stroke-width:.68571001;stroke-linecap:butt;stroke-linejoin:miter;stroke-miterlimit:10;stroke-dasharray:none;stroke-opacity:1"><tspan id="tspan100" x="0 14.256 32.4 50.64" y="0">ENDS</tspan></text></g></g><g id="g102" transform="matrix(1.25,0,0,-1.25,0,675)"><g id="g104" clip-path="url(#clipPath106)"><text id="text110" transform="matrix(1,0,0,-1,226.06,403.8)" style="font-variant:normal;font-weight:300;font-size:24px;font-family:Lato;-inkscape-font-specification:Lato-Light;writing-mode:lr-tb;fill:#123642;fill-opacity:1;fill-rule:nonzero;stroke:#123642;stroke-width:.68571001;stroke-linecap:butt;stroke-linejoin:miter;stroke-miterlimit:10;stroke-dasharray:none;stroke-opacity:1"><tspan id="tspan112" x="0 13.728 28.56 47.856 66" y="0">FRONT</tspan></text></g></g><g id="g114" transform="matrix(1.25,0,0,-1.25,0,675)"><g id="g116" clip-path="url(#clipPath118)"><text id="text122" transform="matrix(1,0,0,-1,303.82,403.8)" style="font-variant:normal;font-weight:300;font-size:24px;font-family:Lato;-inkscape-font-specification:Lato-Light;writing-mode:lr-tb;fill:#123642;fill-opacity:1;fill-rule:nonzero;stroke:#123642;stroke-width:.68571001;stroke-linecap:butt;stroke-linejoin:miter;stroke-miterlimit:10;stroke-dasharray:none;stroke-opacity:1"><tspan id="tspan124" x="0" y="0">-</tspan></text></g></g><g id="g126" transform="matrix(1.25,0,0,-1.25,0,675)"><g id="g128" clip-path="url(#clipPath130)"><text id="text134" transform="matrix(1,0,0,-1,311.86,403.8)" style="font-variant:normal;font-weight:300;font-size:24px;font-family:Lato;-inkscape-font-specification:Lato-Light;writing-mode:lr-tb;fill:#123642;fill-opacity:1;fill-rule:nonzero;stroke:#123642;stroke-width:.68571001;stroke-linecap:butt;stroke-linejoin:miter;stroke-miterlimit:10;stroke-dasharray:none;stroke-opacity:1"><tspan id="tspan136" x="0 14.256 32.4 50.64" y="0">ENDS</tspan></text></g></g><path id="path138" d="m 36.3,204.375 c 0,-7.825 6.34625,-14.175 14.175,-14.175 l 134.7,0 c 7.825,0 14.175,6.35 14.175,14.175 l 0,56.7 c 0,7.825 -6.35,14.175 -14.175,14.175 l -134.7,0 C 42.64625,275.25 36.3,268.9 36.3,261.075 l 0,-56.7 z" style="fill:#123642;fill-opacity:1;fill-rule:evenodd;stroke:none"/><path id="path140" d="m 38.1,205.7 c 0,-7.4875 6.06625,-13.55 13.55,-13.55 l 132.35,0 c 7.4875,0 13.55,6.0625 13.55,13.55 l 0,54.2 c 0,7.4875 -6.0625,13.55 -13.55,13.55 l -132.35,0 c -7.48375,0 -13.55,-6.0625 -13.55,-13.55 l 0,-54.2 z" style="fill:#cbdad2;fill-opacity:1;fill-rule:evenodd;stroke:none"/><g id="g142" transform="matrix(1.25,0,0,-1.25,0,675)"><g id="g144" clip-path="url(#clipPath146)"><text id="text150" transform="matrix(1,0,0,-1,33.384,357.31)" style="font-variant:normal;font-weight:300;font-size:15.96000004px;font-family:Lato;-inkscape-font-specification:Lato-Light;writing-mode:lr-tb;fill:#123642;fill-opacity:1;fill-rule:nonzero;stroke:#123642;stroke-width:.456;stroke-linecap:butt;stroke-linejoin:miter;stroke-miterlimit:10;stroke-dasharray:none;stroke-opacity:1"><tspan id="tspan152" x="0 8.379 14.125 20.237 28.01 39.772 48.534 56.69 63.026 69.394 77.167 79.96 89.184 93.127 101.282 105.001 113.715" y="0">Strawberry Fields</tspan></text></g></g><g id="g154" transform="matrix(1.25,0,0,-1.25,0,675)"><g id="g156" clip-path="url(#clipPath158)"><text id="text162" transform="matrix(1,0,0,-1,32.784,338.11)" style="font-variant:normal;font-weight:300;font-size:15.96000004px;font-family:Lato;-inkscape-font-specification:Lato-Light;writing-mode:lr-tb;fill:#123642;fill-opacity:1;fill-rule:nonzero;stroke:#123642;stroke-width:.456;stroke-linecap:butt;stroke-linejoin:miter;stroke-miterlimit:10;stroke-dasharray:none;stroke-opacity:1"><tspan id="tspan164" x="0 4.9 13.646 19.391 27.547 33.548 41.225 48.534 54.168 57.967 65.564" y="0">Interactive</tspan></text></g></g><g id="g166" transform="matrix(1.25,0,0,-1.25,0,675)"><g id="g168" clip-path="url(#clipPath170)"><text id="text174" transform="matrix(1,0,0,-1,109.34,338.11)" style="font-variant:normal;font-weight:300;font-size:15.96000004px;font-family:Lato;-inkscape-font-specification:Lato-Light;writing-mode:lr-tb;fill:#123642;fill-opacity:1;fill-rule:nonzero;stroke:#123642;stroke-width:.456;stroke-linecap:butt;stroke-linejoin:miter;stroke-miterlimit:10;stroke-dasharray:none;stroke-opacity:1"><tspan id="tspan176" x="0 8.379 16.646 23.11 30.787" y="0">Serve</tspan></text></g></g><g id="g178" transform="matrix(1.25,0,0,-1.25,0,675)"><g id="g180" clip-path="url(#clipPath182)"><text id="text186" transform="matrix(1,0,0,-1,148.34,338.11)" style="font-variant:normal;font-weight:300;font-size:15.96000004px;font-family:Lato;-inkscape-font-specification:Lato-Light;writing-mode:lr-tb;fill:#123642;fill-opacity:1;fill-rule:nonzero;stroke:#123642;stroke-width:.456;stroke-linecap:butt;stroke-linejoin:miter;stroke-miterlimit:10;stroke-dasharray:none;stroke-opacity:1"><tspan id="tspan188" x="0" y="0">r</tspan></text></g></g><path id="path190" d="m 36.3,467.925 c 0,-7.825 6.34625,-14.175 14.175,-14.175 l 134.7,0 c 7.825,0 14.175,6.35 14.175,14.175 l 0,56.7 c 0,7.825 -6.35,14.175 -14.175,14.175 l -134.7,0 C 42.64625,538.8 36.3,532.45 36.3,524.625 l 0,-56.7 z" style="fill:#123642;fill-opacity:1;fill-rule:evenodd;stroke:none"/><path id="path192" d="m 38.1,469.25 c 0,-7.4875 6.06625,-13.55 13.55,-13.55 l 132.35,0 c 7.4875,0 13.55,6.0625 13.55,13.55 l 0,54.2 c 0,7.4875 -6.0625,13.55 -13.55,13.55 L 51.65,537 C 44.16625,537 38.1,530.9375 38.1,523.45 l 0,-54.2 z" style="fill:#cbdad2;fill-opacity:1;fill-rule:evenodd;stroke:none"/><g id="g194" transform="matrix(1.25,0,0,-1.25,0,675)"><g id="g196" clip-path="url(#clipPath198)"><text id="text202" transform="matrix(1,0,0,-1,52.176,136.75)" style="font-variant:normal;font-weight:300;font-size:15.96000004px;font-family:Lato;-inkscape-font-specification:Lato-Light;writing-mode:lr-tb;fill:#123642;fill-opacity:1;fill-rule:nonzero;stroke:#123642;stroke-width:.456;stroke-linecap:butt;stroke-linejoin:miter;stroke-miterlimit:10;stroke-dasharray:none;stroke-opacity:1"><tspan id="tspan204" x="0 10.422 19.04 27.659 31.601 35.399 42.661 50.434 56.083 59.882 68.516 77.183" y="0">Applications</tspan></text></g></g><path id="path206" d="m 160.5,329.125 c 0,-9.7875 7.9375,-17.725 17.725,-17.725 l 127.6,0 c 9.7875,0 17.725,7.9375 17.725,17.725 l 0,70.9 c 0,9.7875 -7.9375,17.725 -17.725,17.725 l -127.6,0 c -9.7875,0 -17.725,-7.9375 -17.725,-17.725 l 0,-70.9 z" style="fill:#123642;fill-opacity:1;fill-rule:evenodd;stroke:none"/><path id="path208" d="m 162.3,330.3 c 0,-9.45 7.65,-17.1 17.1,-17.1 l 125.25,0 c 9.45,0 17.1,7.65 17.1,17.1 l 0,68.4 c 0,9.45 -7.65,17.1 -17.1,17.1 l -125.25,0 c -9.45,0 -17.1,-7.65 -17.1,-17.1 l 0,-68.4 z" style="fill:#cbdad2;fill-opacity:1;fill-rule:evenodd;stroke:none"/><g id="g210" transform="matrix(1.25,0,0,-1.25,0,675)"><g id="g212" clip-path="url(#clipPath214)"><text id="text218" transform="matrix(1,0,0,-1,154.99,252.55)" style="font-variant:normal;font-weight:300;font-size:15.96000004px;font-family:Lato;-inkscape-font-specification:Lato-Light;writing-mode:lr-tb;fill:#123642;fill-opacity:1;fill-rule:nonzero;stroke:#123642;stroke-width:.456;stroke-linecap:butt;stroke-linejoin:miter;stroke-miterlimit:10;stroke-dasharray:none;stroke-opacity:1"><tspan id="tspan220" x="0 8.379 14.125 20.237 28.01 39.772 48.534 56.69 63.026 69.394" y="0">Strawberry</tspan></text></g></g><g id="g222" transform="matrix(1.25,0,0,-1.25,0,675)"><g id="g224" clip-path="url(#clipPath226)"><text id="text230" transform="matrix(1,0,0,-1,159.43,233.35)" style="font-variant:normal;font-weight:300;font-size:15.96000004px;font-family:Lato;-inkscape-font-specification:Lato-Light;writing-mode:lr-tb;fill:#123642;fill-opacity:1;fill-rule:nonzero;stroke:#123642;stroke-width:.456;stroke-linecap:butt;stroke-linejoin:miter;stroke-miterlimit:10;stroke-dasharray:none;stroke-opacity:1"><tspan id="tspan232" x="0 9.225 13.167 21.323 25.041 33.755 40.618 43.395 53.817 63.409" y="0">Fields API</tspan></text></g></g><path id="path234" d="m 365.4,329.125 c 0,-9.7875 7.9375,-17.725 17.725,-17.725 l 127.6,0 c 9.7875,0 17.725,7.9375 17.725,17.725 l 0,70.9 c 0,9.7875 -7.9375,17.725 -17.725,17.725 l -127.6,0 c -9.7875,0 -17.725,-7.9375 -17.725,-17.725 l 0,-70.9 z" style="fill:#123642;fill-opacity:1;fill-rule:evenodd;stroke:none"/><path id="path236" d="m 367.2,330.3 c 0,-9.45 7.65,-17.1 17.1,-17.1 l 125.25,0 c 9.45,0 17.1,7.65 17.1,17.1 l 0,68.4 c 0,9.45 -7.65,17.1 -17.1,17.1 l -125.25,0 c -9.45,0 -17.1,-7.65 -17.1,-17.1 l 0,-68.4 z" style="fill:#cbdad2;fill-opacity:1;fill-rule:evenodd;stroke:none"/><g id="g238" transform="matrix(1.25,0,0,-1.25,0,675)"><g id="g240" clip-path="url(#clipPath242)"><text id="text246" transform="matrix(1,0,0,-1,325.15,270.53)" style="font-variant:normal;font-weight:300;font-size:15.96000004px;font-family:Lato;-inkscape-font-specification:Lato-Light;writing-mode:lr-tb;fill:#123642;fill-opacity:1;fill-rule:nonzero;stroke:#123642;stroke-width:.456;stroke-linecap:butt;stroke-linejoin:miter;stroke-miterlimit:10;stroke-dasharray:none;stroke-opacity:1"><tspan id="tspan248" x="0 10.31 14.252 22.025 29.35 37.155 45.869 49.668 56.004" y="0">Blackbird</tspan></text></g></g><g id="g250" transform="matrix(1.25,0,0,-1.25,0,675)"><g id="g252" clip-path="url(#clipPath254)"><text id="text258" transform="matrix(1,0,0,-1,324.91,251.33)" style="font-variant:normal;font-weight:300;font-size:15.96000004px;font-family:Lato;-inkscape-font-specification:Lato-Light;writing-mode:lr-tb;fill:#123642;fill-opacity:1;fill-rule:nonzero;stroke:#123642;stroke-width:.456;stroke-linecap:butt;stroke-linejoin:miter;stroke-miterlimit:10;stroke-dasharray:none;stroke-opacity:1"><tspan id="tspan260" x="0 12.848 21.594 29.494 38.128 43.778 52.413" y="0">Quantum</tspan></text></g></g><g id="g262" transform="matrix(1.25,0,0,-1.25,0,675)"><g id="g264" clip-path="url(#clipPath266)"><text id="text270" transform="matrix(1,0,0,-1,311.11,232.13)" style="font-variant:normal;font-weight:300;font-size:15.98400021px;font-family:Lato;-inkscape-font-specification:Lato-Light;writing-mode:lr-tb;fill:#123642;fill-opacity:1;fill-rule:nonzero;stroke:#123642;stroke-width:.45669001;stroke-linecap:butt;stroke-linejoin:miter;stroke-miterlimit:10;stroke-dasharray:none;stroke-opacity:1"><tspan id="tspan272" x="0 9.59 16.048 24.791 32.943 38.937 46.609 59.333 72.056 75.86 84.507" y="0">Programming</tspan></text></g></g><g id="g274" transform="matrix(1.25,0,0,-1.25,0,675)"><g id="g276" clip-path="url(#clipPath278)"><text id="text282" transform="matrix(1,0,0,-1,324.67,212.9)" style="font-variant:normal;font-weight:300;font-size:15.96000004px;font-family:Lato;-inkscape-font-specification:Lato-Light;writing-mode:lr-tb;fill:#123642;fill-opacity:1;fill-rule:nonzero;stroke:#123642;stroke-width:.456;stroke-linecap:butt;stroke-linejoin:miter;stroke-miterlimit:10;stroke-dasharray:none;stroke-opacity:1"><tspan id="tspan284" x="0 8.267 16.167 24.914 33.053 41.688 49.38 57.52" y="0">Language</tspan></text></g></g><path id="path286" d="m 777.45,213.15 c 0,-5.05 4.1,-9.15 9.15,-9.15 l 367.95,0 c 5.05,0 9.15,4.1 9.15,9.15 l 0,36.6 c 0,5.05 -4.1,9.15 -9.15,9.15 l -367.95,0 c -5.05,0 -9.15,-4.1 -9.15,-9.15 l 0,-36.6 z" style="fill:#123642;fill-opacity:1;fill-rule:evenodd;stroke:none"/><path id="path288" d="m 779.55,214.325 c 0,-4.7125 3.8125,-8.525 8.525,-8.525 l 365,0 c 4.7125,0 8.525,3.8125 8.525,8.525 l 0,34.1 c 0,4.7125 -3.8125,8.525 -8.525,8.525 l -365,0 c -4.7125,0 -8.525,-3.8125 -8.525,-8.525 l 0,-34.1 z" style="fill:#cbdad2;fill-opacity:1;fill-rule:evenodd;stroke:none"/><g id="g290" transform="matrix(1.25,0,0,-1.25,0,675)"><g id="g292" clip-path="url(#clipPath294)"><text id="text298" transform="matrix(1,0,0,-1,699.34,348)" style="font-variant:normal;font-weight:300;font-size:18px;font-family:Lato;-inkscape-font-specification:Lato-Light;writing-mode:lr-tb;fill:#123642;fill-opacity:1;fill-rule:nonzero;stroke:#123642;stroke-width:.51428998;stroke-linecap:butt;stroke-linejoin:miter;stroke-miterlimit:10;stroke-dasharray:none;stroke-opacity:1"><tspan id="tspan300" x="0 14.508 24.336 33.192 42.93 49.266 59.094 73.422 76.608 87.39 94.698 104.526 112.716 122.022 129.708 137.484 147.222" y="0">Quantum Processor</tspan></text></g></g><path id="path302" d="m 777.45,325.625 c 0,-21.8625 17.7125,-39.575 39.575,-39.575 l 307.1,0 c 21.85,0 39.575,17.7125 39.575,39.575 l 0,158.3 c 0,21.85 -17.725,39.575 -39.575,39.575 l -307.1,0 c -21.8625,0 -39.575,-17.725 -39.575,-39.575 l 0,-158.3 z" style="fill:#123642;fill-opacity:1;fill-rule:evenodd;stroke:none"/><path id="path304" d="m 779.55,326.925 c 0,-21.5 17.425,-38.925 38.925,-38.925 l 304.2,0 c 21.5,0 38.925,17.425 38.925,38.925 l 0,155.7 c 0,21.5 -17.425,38.925 -38.925,38.925 l -304.2,0 c -21.5,0 -38.925,-17.425 -38.925,-38.925 l 0,-155.7 z" style="fill:#cbdad2;fill-opacity:1;fill-rule:evenodd;stroke:none"/><g id="g306" transform="matrix(1.25,0,0,-1.25,0,675)"><g id="g308" clip-path="url(#clipPath310)"><text id="text314" transform="matrix(1,0,0,-1,735.48,288.34)" style="font-variant:normal;font-weight:300;font-size:18px;font-family:Lato;-inkscape-font-specification:Lato-Light;writing-mode:lr-tb;fill:#123642;fill-opacity:1;fill-rule:nonzero;stroke:#123642;stroke-width:.51428998;stroke-linecap:butt;stroke-linejoin:miter;stroke-miterlimit:10;stroke-dasharray:none;stroke-opacity:1"><tspan id="tspan316" x="0 9.468 13.896 28.278 38.016 42.3 51.066 57.438 67.176 74.322" y="0">Simulators</tspan></text></g></g><path id="path318" d="m 795.75,340.75 c 0,-7.675 6.225,-13.9 13.9,-13.9 l 322.15,0 c 7.675,0 13.9,6.225 13.9,13.9 l 0,55.6 c 0,7.675 -6.225,13.9 -13.9,13.9 l -322.15,0 c -7.675,0 -13.9,-6.225 -13.9,-13.9 l 0,-55.6 z" style="fill:#fcfff4;fill-opacity:1;fill-rule:evenodd;stroke:none"/><path id="path320" d="m 795.75,435.4 c 0,-7.675 6.225,-13.9 13.9,-13.9 l 322.15,0 c 7.675,0 13.9,6.225 13.9,13.9 l 0,55.6 c 0,7.675 -6.225,13.9 -13.9,13.9 l -322.15,0 c -7.675,0 -13.9,-6.225 -13.9,-13.9 l 0,-55.6 z" style="fill:#fcfff4;fill-opacity:1;fill-rule:evenodd;stroke:none"/><g id="g322" transform="matrix(1.25,0,0,-1.25,0,675)"><g id="g324" clip-path="url(#clipPath326)"><text id="text330" transform="matrix(1,0,0,-1,708.36,257.3)" style="font-style:italic;font-variant:normal;font-weight:300;font-size:18.02400017px;font-family:Lato;-inkscape-font-specification:Lato-LightItalic;writing-mode:lr-tb;fill:#123642;fill-opacity:1;fill-rule:nonzero;stroke:none"><tspan id="tspan332" x="0 8.76 17.664 25.432 33.435 36.913 47.385 55.46 64.562 70.203 78.278 85.235 93.238 102.466 108.396 117.12 123.05 127.087 135.991" y="0">Fock Representation</tspan></text></g></g><g id="g334" transform="matrix(1.25,0,0,-1.25,0,675)"><g id="g336" clip-path="url(#clipPath338)"><text id="text342" transform="matrix(1,0,0,-1,687.26,181.37)" style="font-style:italic;font-variant:normal;font-weight:300;font-size:18px;font-family:Lato;-inkscape-font-specification:Lato-LightItalic;writing-mode:lr-tb;fill:#123642;fill-opacity:1;fill-rule:nonzero;stroke:none"><tspan id="tspan344" x="0 12.384 21.114 30.312 37.296 44.244 48.348 57.096 66.312 70.164 80.622 88.686 97.776 103.41 111.474 118.422 126.486 135.702 141.57 150.336 156.258 160.29 169.182" y="0">Gaussian Representation</tspan></text></g></g><path id="path346" d="m 976.35,367.7 c 0,-3.3375 2.7125,-6.05 6.05,-6.05 l 144.95,0 c 3.3375,0 6.05,2.7125 6.05,6.05 l 0,24.2 c 0,3.3375 -2.7125,6.05 -6.05,6.05 l -144.95,0 c -3.3375,0 -6.05,-2.7125 -6.05,-6.05 l 0,-24.2 z" style="fill:#2f6168;fill-opacity:1;fill-rule:evenodd;stroke:none"/><path id="path348" d="m 807.3,368.325 c 0,-3.35 2.725,-6.075 6.075,-6.075 l 144.6,0 c 3.35,0 6.075,2.725 6.075,6.075 l 0,24.3 c 0,3.35 -2.725,6.075 -6.075,6.075 l -144.6,0 c -3.35,0 -6.075,-2.725 -6.075,-6.075 l 0,-24.3 z" style="fill:#2f6168;fill-opacity:1;fill-rule:evenodd;stroke:none"/><g id="g350" transform="matrix(1.25,0,0,-1.25,0,675)"><g id="g352" clip-path="url(#clipPath354)"><text id="text358" transform="matrix(1,0,0,-1,683.54,230.64)" style="font-variant:normal;font-size:15.96000004px;font-family:Lato;-inkscape-font-specification:Lato-Hairline;writing-mode:lr-tb;fill:#fcfff4;fill-opacity:1;fill-rule:nonzero;stroke:#fcfff4;stroke-width:.456;stroke-linecap:butt;stroke-linejoin:miter;stroke-miterlimit:10;stroke-dasharray:none;stroke-opacity:1"><tspan id="tspan360" x="0 12.225 20.732 33.197 42.533" y="0">NumPy</tspan></text></g></g><g id="g362" transform="matrix(1.25,0,0,-1.25,0,675)"><g id="g364" clip-path="url(#clipPath366)"><text id="text370" transform="matrix(1,0,0,-1,806.74,230.14)" style="font-variant:normal;font-size:15.96000004px;font-family:Lato;-inkscape-font-specification:Lato-Hairline;writing-mode:lr-tb;fill:#fcfff4;fill-opacity:1;fill-rule:nonzero;stroke:#fcfff4;stroke-width:.456;stroke-linecap:butt;stroke-linejoin:miter;stroke-miterlimit:10;stroke-dasharray:none;stroke-opacity:1"><tspan id="tspan372" x="0 7.565 15.593 24.1 31.042 39.549 45.885 50.817 54.36 62.914" y="0">Tensorflow</tspan></text></g></g><path id="path374" d="m 892.2,463.875 c 0,-3.35 2.725,-6.075 6.075,-6.075 l 144.6,0 c 3.35,0 6.075,2.725 6.075,6.075 l 0,24.3 c 0,3.35 -2.725,6.075 -6.075,6.075 l -144.6,0 c -3.35,0 -6.075,-2.725 -6.075,-6.075 l 0,-24.3 z" style="fill:#2f6168;fill-opacity:1;fill-rule:evenodd;stroke:none"/><g id="g376" transform="matrix(1.25,0,0,-1.25,0,675)"><g id="g378" clip-path="url(#clipPath380)"><text id="text384" transform="matrix(1,0,0,-1,751.49,154.22)" style="font-variant:normal;font-size:15.98400021px;font-family:Lato;-inkscape-font-specification:Lato-Hairline;writing-mode:lr-tb;fill:#fcfff4;fill-opacity:1;fill-rule:nonzero;stroke:#fcfff4;stroke-width:.45669001;stroke-linecap:butt;stroke-linejoin:miter;stroke-miterlimit:10;stroke-dasharray:none;stroke-opacity:1"><tspan id="tspan386" x="0 12.228 20.731 33.199 42.549" y="0">NumPy</tspan></text></g></g></g></svg>